<svg height="512" viewBox="0 0 176 176" width="512" xmlns="http://www.w3.org/2000/svg"><g id="Layer_2" data-name="Layer 2"><g id="_52.blogger" data-name="52.blogger"><g id="icon"><path d="m60.5 68.14a7.56 7.56 0 0 1 7.64-7.64h24.44a7.64 7.64 0 0 1 0 15.28h-24.44a7.56 7.56 0 0 1 -7.64-7.64z"/><path d="m115.5 107.86a7.56 7.56 0 0 1 -7.64 7.64h-39.72a7.64 7.64 0 0 1 0-15.28h39.72a7.57 7.57 0 0 1 7.64 7.64z"/><path d="m88 0a88 88 0 1 0 88 88 88 88 0 0 0 -88-88zm55 110c0 18.95-13.44 33-32.69 33h-44.31c-19.56 0-33-14-33-33v-44c0-19.25 13.44-33 32.69-33h27.81c11 0 28.11 11 28.11 27.5v15.28c16.5 0 21.39 6.72 21.39 23.22z"/></g></g></g></svg>