<?xml version="1.0" encoding="utf-8"?>
<!-- Generator: Adobe Illustrator 27.4.1, SVG Export Plug-In . SVG Version: 6.00 Build 0)  -->
<svg version="1.1" id="Layer_1" xmlns="http://www.w3.org/2000/svg" xmlns:xlink="http://www.w3.org/1999/xlink" x="0px" y="0px"
	 viewBox="0 0 182 54" style="enable-background:new 0 0 182 54;" xml:space="preserve">
<style type="text/css">
	.st0{fill:url(#SVGID_1_);}
	.st1{fill:url(#SVGID_00000049904874389731161720000007875847194138450341_);}
	.st2{fill:url(#SVGID_00000018934665238824904840000016333654553177690279_);}
	.st3{fill:url(#SVGID_00000067929455057178603790000015933758603875904677_);}
</style>
<linearGradient id="SVGID_1_" gradientUnits="userSpaceOnUse" x1="-2.1819" y1="27.3085" x2="171.1731" y2="25.5969" gradientTransform="matrix(1 0 0 -1 0 53.7323)">
	<stop  offset="0" style="stop-color:#602DA0"/>
	<stop  offset="1" style="stop-color:#9B1E5A"/>
</linearGradient>
<path class="st0" d="M0.7,43.4c1.6-1.3,2.3-1.8,2.2-1.8c4.6-3.8,8.2-6.9,10.8-9.3c2.7-2.4,4.9-5,6.7-7.6s2.7-5.2,2.7-7.8
	c0-1.9-0.4-3.4-1.3-4.5c-0.9-1.1-2.2-1.6-4-1.6c-1.8,0-3.2,0.7-4.2,2c-1,1.3-1.5,3.2-1.5,5.6H0.6c0.1-4,0.9-7.3,2.5-9.9
	c1.6-2.7,3.8-4.6,6.4-5.9c2.7-1.3,5.6-1.9,8.8-1.9c5.6,0,9.7,1.4,12.5,4.3c2.8,2.8,4.3,6.6,4.3,11.1c0,5-1.7,9.6-5.1,13.9
	c-3.4,4.2-7.7,8.4-13,12.5h18.9v9.7H0.7V43.4z"/>
<linearGradient id="SVGID_00000070101747210477182620000011852527276465058703_" gradientUnits="userSpaceOnUse" x1="-2.1797" y1="27.5342" x2="171.1753" y2="25.8225" gradientTransform="matrix(1 0 0 -1 0 53.7323)">
	<stop  offset="0" style="stop-color:#602DA0"/>
	<stop  offset="1" style="stop-color:#9B1E5A"/>
</linearGradient>
<path style="fill:url(#SVGID_00000070101747210477182620000011852527276465058703_);" d="M41.1,26.7c0-8,1.5-14.3,4.6-19
	c3.1-4.6,8.1-6.9,15-6.9c6.9,0,11.9,2.3,15,6.9c3.1,4.6,4.7,10.9,4.7,19c0,8.1-1.6,14.5-4.7,19.1c-3.1,4.6-8.1,6.9-15,6.9
	c-6.9,0-11.9-2.3-15-6.9C42.7,41.2,41.1,34.9,41.1,26.7z M68.7,26.7c0-4.7-0.5-8.3-1.5-10.8c-1-2.6-3.2-3.8-6.4-3.8
	s-5.3,1.3-6.4,3.8c-1,2.5-1.5,6.1-1.5,10.8c0,3.2,0.2,5.8,0.6,7.9c0.4,2.1,1.1,3.7,2.2,5c1.2,1.3,2.9,1.9,5.1,1.9
	c2.2,0,3.9-0.6,5-1.9c1.2-1.3,1.9-3,2.3-5C68.5,32.6,68.7,29.9,68.7,26.7z"/>
<linearGradient id="SVGID_00000111188257827378157370000005960503712448241325_" gradientUnits="userSpaceOnUse" x1="-2.1752" y1="27.9851" x2="171.1798" y2="26.2734" gradientTransform="matrix(1 0 0 -1 0 53.7323)">
	<stop  offset="0" style="stop-color:#602DA0"/>
	<stop  offset="1" style="stop-color:#9B1E5A"/>
</linearGradient>
<path style="fill:url(#SVGID_00000111188257827378157370000005960503712448241325_);" d="M86.8,26.7c0-8,1.5-14.3,4.6-19
	c3.1-4.6,8.1-6.9,15-6.9c6.9,0,11.9,2.3,15,6.9c3.1,4.6,4.7,10.9,4.7,19c0,8.1-1.6,14.5-4.7,19.1c-3.1,4.6-8.1,6.9-15,6.9
	c-6.9,0-11.9-2.3-15-6.9C88.3,41.2,86.8,34.9,86.8,26.7z M114.4,26.7c0-4.7-0.5-8.3-1.5-10.8c-1-2.6-3.2-3.8-6.4-3.8
	s-5.3,1.3-6.4,3.8c-1,2.5-1.5,6.1-1.5,10.8c0,3.2,0.2,5.8,0.6,7.9c0.4,2.1,1.1,3.7,2.2,5c1.2,1.3,2.9,1.9,5.1,1.9s3.9-0.6,5-1.9
	c1.2-1.3,1.9-3,2.3-5C114.2,32.6,114.4,29.9,114.4,26.7z"/>
<linearGradient id="SVGID_00000134208921572620229680000012447962248640774571_" gradientUnits="userSpaceOnUse" x1="-2.1883" y1="26.6655" x2="171.1667" y2="24.9538" gradientTransform="matrix(1 0 0 -1 0 53.7323)">
	<stop  offset="0" style="stop-color:#602DA0"/>
	<stop  offset="1" style="stop-color:#9B1E5A"/>
</linearGradient>
<path style="fill:url(#SVGID_00000134208921572620229680000012447962248640774571_);" d="M132.3,14.3c0-3.4,1-6.1,2.9-8
	c2-2,4.6-2.9,7.7-2.9c3.1,0,5.7,1,7.6,2.9c2,1.9,3,4.6,3,8c0,3.4-1,6.1-3,8c-2,2-4.5,2.9-7.6,2.9c-3.1,0-5.7-1-7.7-2.9
	C133.2,20.4,132.3,17.7,132.3,14.3z M175,4.3L147,53h-7.8l27.9-48.7H175z M142.9,8.2c-2.9,0-4.4,2-4.4,6.1c0,4.1,1.5,6.2,4.4,6.2
	c1.4,0,2.5-0.5,3.2-1.5c0.8-1,1.2-2.6,1.2-4.7C147.3,10.2,145.8,8.2,142.9,8.2z M160.7,42.9c0-3.4,1-6.1,2.9-8c2-2,4.6-2.9,7.7-2.9
	c3.1,0,5.6,1,7.6,2.9c2,1.9,3,4.6,3,8c0,3.4-1,6.1-3,8.1c-2,2-4.5,2.9-7.6,2.9c-3.1,0-5.7-1-7.7-2.9C161.7,49,160.7,46.3,160.7,42.9
	z M171.3,36.8c-2.9,0-4.4,2-4.4,6.1s1.5,6.1,4.4,6.1c2.9,0,4.4-2,4.4-6.1S174.3,36.8,171.3,36.8z"/>
</svg>
