<?xml version="1.0" encoding="utf-8"?>
<!-- Generator: Adobe Illustrator 27.4.1, SVG Export Plug-In . SVG Version: 6.00 Build 0)  -->
<svg version="1.1" id="Layer_1" xmlns="http://www.w3.org/2000/svg" xmlns:xlink="http://www.w3.org/1999/xlink" x="0px" y="0px"
	 viewBox="0 0 138 54" style="enable-background:new 0 0 138 54;" xml:space="preserve">
<style type="text/css">
	.st0{fill:url(#SVGID_1_);}
	.st1{fill:url(#SVGID_00000083054970983684346770000005726173467373166747_);}
	.st2{fill:url(#SVGID_00000182526525095697430080000000723852162793879699_);}
</style>
<linearGradient id="SVGID_1_" gradientUnits="userSpaceOnUse" x1="-9.123578e-03" y1="26.9455" x2="127.6704" y2="25.0253" gradientTransform="matrix(1 0 0 -1 0 53.7323)">
	<stop  offset="0" style="stop-color:#2858D3"/>
	<stop  offset="1" style="stop-color:#01B3FF"/>
</linearGradient>
<path class="st0" d="M0.8,16.3c0.2-5,1.8-8.8,4.9-11.6s7.3-4.1,12.5-4.1c3.5,0,6.5,0.6,9,1.8c2.5,1.2,4.4,2.9,5.7,5
	c1.3,2.1,2,4.5,2,7.1c0,3.1-0.8,5.6-2.3,7.6c-1.5,1.9-3.3,3.2-5.4,3.9v0.3c2.7,0.9,4.8,2.4,6.3,4.4c1.5,2.1,2.3,4.7,2.3,7.9
	c0,2.9-0.7,5.5-2,7.7c-1.3,2.2-3.2,3.9-5.8,5.2c-2.5,1.3-5.5,1.9-9,1.9c-5.6,0-10.1-1.4-13.4-4.1c-3.3-2.8-5.1-6.9-5.3-12.5h11.6
	c0,2.1,0.6,3.7,1.8,4.9c1.1,1.2,2.8,1.8,4.9,1.8c1.8,0,3.2-0.5,4.2-1.5c1-1.1,1.5-2.5,1.5-4.2c0-2.2-0.7-3.9-2.2-4.8
	c-1.4-1-3.7-1.5-6.8-1.5h-2.2v-9.7h2.2c2.4,0,4.3-0.4,5.7-1.2c1.5-0.8,2.2-2.3,2.2-4.4c0-1.7-0.5-3-1.4-3.9
	c-0.9-0.9-2.2-1.4-3.8-1.4c-1.8,0-3.1,0.5-4,1.6c-0.8,1.1-1.3,2.4-1.5,4H0.8z"/>
<linearGradient id="SVGID_00000058554088345893871660000004681695454640927389_" gradientUnits="userSpaceOnUse" x1="4.487684e-03" y1="27.8506" x2="127.684" y2="25.9304" gradientTransform="matrix(1 0 0 -1 0 53.7323)">
	<stop  offset="0" style="stop-color:#2858D3"/>
	<stop  offset="1" style="stop-color:#01B3FF"/>
</linearGradient>
<path style="fill:url(#SVGID_00000058554088345893871660000004681695454640927389_);" d="M42.7,26.7c0-8,1.5-14.3,4.6-19
	c3.1-4.6,8.1-6.9,15-6.9s11.9,2.3,15,6.9c3.1,4.6,4.7,10.9,4.7,19c0,8.1-1.6,14.5-4.7,19.1c-3.1,4.6-8.1,6.9-15,6.9
	s-11.9-2.3-15-6.9C44.3,41.2,42.7,34.9,42.7,26.7z M70.3,26.7c0-4.7-0.5-8.3-1.5-10.8c-1-2.6-3.2-3.8-6.4-3.8
	c-3.2,0-5.3,1.3-6.4,3.8c-1,2.5-1.5,6.1-1.5,10.8c0,3.2,0.2,5.8,0.6,7.9c0.4,2.1,1.1,3.7,2.2,5c1.2,1.3,2.9,1.9,5.1,1.9
	s3.9-0.6,5-1.9c1.2-1.3,1.9-3,2.3-5C70.1,32.6,70.3,29.9,70.3,26.7z"/>
<linearGradient id="SVGID_00000139280086461380703370000018110352251345506750_" gradientUnits="userSpaceOnUse" x1="-1.141990e-02" y1="26.7928" x2="127.6681" y2="24.8726" gradientTransform="matrix(1 0 0 -1 0 53.7323)">
	<stop  offset="0" style="stop-color:#2858D3"/>
	<stop  offset="1" style="stop-color:#01B3FF"/>
</linearGradient>
<path style="fill:url(#SVGID_00000139280086461380703370000018110352251345506750_);" d="M88.2,14.3c0-3.4,1-6.1,2.9-8
	c2-2,4.6-2.9,7.7-2.9c3.1,0,5.7,1,7.6,2.9c2,1.9,3,4.6,3,8c0,3.4-1,6.1-3,8c-2,2-4.5,2.9-7.6,2.9c-3.1,0-5.7-1-7.7-2.9
	C89.2,20.4,88.2,17.7,88.2,14.3z M130.9,4.3L102.9,53h-7.8L123,4.3H130.9z M98.8,8.2c-2.9,0-4.4,2-4.4,6.1c0,4.1,1.5,6.2,4.4,6.2
	c1.4,0,2.5-0.5,3.2-1.5c0.8-1,1.2-2.6,1.2-4.7C103.2,10.2,101.8,8.2,98.8,8.2z M116.7,42.9c0-3.4,1-6.1,2.9-8c2-2,4.6-2.9,7.7-2.9
	c3.1,0,5.6,1,7.6,2.9c2,1.9,3,4.6,3,8c0,3.4-1,6.1-3,8.1c-2,2-4.5,2.9-7.6,2.9c-3.1,0-5.7-1-7.7-2.9C117.6,49,116.7,46.3,116.7,42.9
	z M127.2,36.8c-2.9,0-4.4,2-4.4,6.1s1.5,6.1,4.4,6.1s4.4-2,4.4-6.1S130.2,36.8,127.2,36.8z"/>
</svg>
