<?xml version="1.0" encoding="utf-8"?>
<!-- Generator: Adobe Illustrator 27.4.1, SVG Export Plug-In . SVG Version: 6.00 Build 0)  -->
<svg version="1.1" id="Layer_1" xmlns="http://www.w3.org/2000/svg" xmlns:xlink="http://www.w3.org/1999/xlink" x="0px" y="0px"
	 viewBox="0 0 134 54" style="enable-background:new 0 0 134 54;" xml:space="preserve">
<style type="text/css">
	.st0{fill:url(#SVGID_1_);}
	.st1{fill:url(#SVGID_00000026123276012100017940000005008069318731256195_);}
	.st2{fill:url(#SVGID_00000112616622946707410270000005246968987836733373_);}
</style>
<linearGradient id="SVGID_1_" gradientUnits="userSpaceOnUse" x1="-2.934993e-02" y1="26.5262" x2="123.9972" y2="24.7096" gradientTransform="matrix(1 0 0 -1 0 53.7323)">
	<stop  offset="0" style="stop-color:#D3283D"/>
	<stop  offset="1" style="stop-color:#FFC701"/>
</linearGradient>
<path class="st0" d="M33.9,10.9L16.3,53H4.1l17.8-40.8H0.1V2h33.8V10.9z"/>
<linearGradient id="SVGID_00000126286709383789332910000013789098578375618188_" gradientUnits="userSpaceOnUse" x1="-1.115669e-02" y1="27.7683" x2="124.0154" y2="25.9517" gradientTransform="matrix(1 0 0 -1 0 53.7323)">
	<stop  offset="0" style="stop-color:#D3283D"/>
	<stop  offset="1" style="stop-color:#FFC701"/>
</linearGradient>
<path style="fill:url(#SVGID_00000126286709383789332910000013789098578375618188_);" d="M38.8,26.7c0-8,1.5-14.3,4.6-19
	c3.1-4.6,8.1-6.9,15.1-6.9c6.9,0,11.9,2.3,15,6.9c3.1,4.6,4.7,10.9,4.7,19c0,8.1-1.6,14.5-4.7,19.1c-3.1,4.6-8.1,6.9-15,6.9
	c-6.9,0-11.9-2.3-15.1-6.9C40.3,41.2,38.8,34.9,38.8,26.7z M66.3,26.7c0-4.7-0.5-8.3-1.5-10.8c-1-2.6-3.2-3.8-6.4-3.8
	c-3.2,0-5.3,1.3-6.4,3.8c-1,2.5-1.5,6.1-1.5,10.8c0,3.2,0.2,5.8,0.6,7.9c0.4,2.1,1.1,3.7,2.2,5c1.2,1.3,2.9,1.9,5.1,1.9
	c2.2,0,3.9-0.6,5-1.9c1.2-1.3,1.9-3,2.3-5C66.2,32.6,66.3,29.9,66.3,26.7z"/>
<linearGradient id="SVGID_00000158710822736139750080000007885213457352144776_" gradientUnits="userSpaceOnUse" x1="-2.694058e-02" y1="26.6906" x2="123.9997" y2="24.874" gradientTransform="matrix(1 0 0 -1 0 53.7323)">
	<stop  offset="0" style="stop-color:#D3283D"/>
	<stop  offset="1" style="stop-color:#FFC701"/>
</linearGradient>
<path style="fill:url(#SVGID_00000158710822736139750080000007885213457352144776_);" d="M84.2,14.3c0-3.4,1-6.1,2.9-8
	c2-2,4.6-2.9,7.7-2.9s5.7,1,7.6,2.9c2,1.9,3,4.6,3,8c0,3.4-1,6.1-3,8c-2,2-4.5,2.9-7.6,2.9s-5.7-1-7.7-2.9
	C85.2,20.4,84.2,17.7,84.2,14.3z M126.9,4.3L99,53h-7.8l27.9-48.7H126.9z M94.9,8.2c-2.9,0-4.4,2-4.4,6.1c0,4.1,1.5,6.2,4.4,6.2
	c1.4,0,2.5-0.5,3.2-1.5c0.8-1,1.2-2.6,1.2-4.7C99.3,10.2,97.8,8.2,94.9,8.2z M112.7,42.9c0-3.4,1-6.1,2.9-8c2-2,4.6-2.9,7.7-2.9
	c3.1,0,5.6,1,7.6,2.9c2,1.9,3,4.6,3,8c0,3.4-1,6.1-3,8.1c-2,2-4.5,2.9-7.6,2.9c-3.1,0-5.7-1-7.7-2.9C113.7,49,112.7,46.3,112.7,42.9
	z M123.3,36.8c-2.9,0-4.4,2-4.4,6.1s1.5,6.1,4.4,6.1c2.9,0,4.4-2,4.4-6.1S126.2,36.8,123.3,36.8z"/>
</svg>
