<svg width="15" height="12" viewBox="0 0 15 12" fill="none" xmlns="http://www.w3.org/2000/svg">
<path fill-rule="evenodd" clip-rule="evenodd" d="M2.46831 2.05199C2.13578 2.05199 1.8612 2.32658 1.8612 2.6591V9.94445C1.8612 10.277 2.13578 10.5516 2.46831 10.5516H12.1821C12.5146 10.5516 12.7892 10.277 12.7892 9.94445V2.6591C12.7892 2.32658 12.5146 2.05199 12.1821 2.05199H2.46831ZM0.646973 2.6591C0.646973 1.65598 1.46519 0.837769 2.46831 0.837769H12.1821C13.1852 0.837769 14.0034 1.65598 14.0034 2.6591V9.94445C14.0034 10.9476 13.1852 11.7658 12.1821 11.7658H2.46831C1.46519 11.7658 0.646973 10.9476 0.646973 9.94445V2.6591Z" fill="white"/>
<path fill-rule="evenodd" clip-rule="evenodd" d="M0.756771 2.31089C0.949052 2.0362 1.32761 1.9694 1.60229 2.16168L7.32525 6.16775L13.0482 2.16168C13.3229 1.9694 13.7015 2.0362 13.8937 2.31089C14.086 2.58558 14.0192 2.96413 13.7445 3.15641L7.67341 7.40619C7.46437 7.55252 7.18614 7.55252 6.9771 7.40619L0.905981 3.15641C0.631293 2.96413 0.56449 2.58558 0.756771 2.31089Z" fill="white"/>
</svg>
