<svg id="Capa_1" enable-background="new 0 0 512.11 512.11" height="512" viewBox="0 0 512.11 512.11" width="512" xmlns="http://www.w3.org/2000/svg"><g><path d="m451.123 64.565-6.22-17.813c-9.753-27.931-36.183-46.697-65.768-46.697h-71.152l-45.278 45.277v39.549c0 33.495 27.25 60.745 60.744 60.745h27.776c11.044 48.473 12.288 100.171 3.772 149.513-2.23-2.266-4.546-4.461-6.954-6.573-25.141-22.041-57.292-33.691-92.979-33.691-2.033 0-4.057.052-6.076.129-6.596-24.355-20.438-46.386-39.8-62.997-22.9-19.647-52.15-30.467-82.359-30.467-64.724 0-118.255 48.852-125.666 111.616h-1.163v14.926c0 59.778 23.268 115.987 65.518 158.274 42.25 42.289 98.439 65.606 158.216 65.66l42.193.038h.383c70.985-.001 141.492-17.867 203.909-51.677l41.718-22.598c0 .001 6.544-209.869-60.814-373.214zm31.023 355.402-26.146 14.162c-58.068 31.454-123.65 48.074-189.69 48.074-.118 0-.239 0-.356 0l-42.193-.038c-51.808-.047-100.507-20.256-137.125-56.906-34.088-34.119-53.918-78.692-56.496-126.483v-10.693c0-53.316 43.375-96.69 96.689-96.69 23.084 0 45.429 8.265 62.921 23.271 13.798 11.838 23.915 27.267 29.307 44.365-31.189 7.322-58.675 24.035-77.118 47.721l23.553 18.341c19.68-25.274 53.164-40.362 89.571-40.362 28.338 0 53.685 9.09 73.3 26.287 18.403 16.133 30.106 38.3 32.955 62.419l29.646-3.502c-1.73-14.651-5.963-28.744-12.41-41.744 15.825-63.927 15.461-132.989-.414-196.845v-27.092c0-26.264-21.612-47.631-47.876-47.631h-3.993v29.849h3.993c9.803 0 17.779 7.976 17.779 17.779v11.525h-24.594c-17.034 0-30.892-13.858-30.892-30.893v-27.184l27.79-27.79h58.788c16.907 0 32.011 10.724 37.585 26.686l6.219 17.812c39.076 111.912 58.996 229.329 59.206 345.403.001.053.001.106.001.159z"/></g></svg>