<svg width="12" height="14" viewBox="0 0 12 14" fill="none" xmlns="http://www.w3.org/2000/svg">
<path fill-rule="evenodd" clip-rule="evenodd" d="M5.82078 1.62423C4.67652 1.62423 3.57913 2.0872 2.77001 2.91131C1.9609 3.73541 1.50634 4.85313 1.50634 6.01859C1.50634 7.72034 2.59344 9.37163 3.78542 10.6531C4.37038 11.282 4.95717 11.7969 5.39833 12.1547C5.56252 12.2879 5.70592 12.3988 5.82078 12.4852C5.93564 12.3988 6.07905 12.2879 6.24323 12.1547C6.68439 11.7969 7.27118 11.282 7.85614 10.6531C9.04812 9.37163 10.1352 7.72034 10.1352 6.01859C10.1352 4.85313 9.68066 3.73541 8.87155 2.91131C8.06243 2.0872 6.96504 1.62423 5.82078 1.62423ZM5.82078 13.1594C5.52163 13.6165 5.52149 13.6164 5.52134 13.6163L5.51979 13.6152L5.5162 13.6128L5.50384 13.6043C5.49334 13.597 5.47836 13.5866 5.45921 13.5731C5.4209 13.546 5.36586 13.5067 5.29646 13.4556C5.15773 13.3536 4.96132 13.2046 4.72644 13.0141C4.25752 12.6338 3.63087 12.0844 3.0024 11.4087C1.76751 10.081 0.427734 8.16191 0.427734 6.01859C0.427734 4.56177 0.995929 3.16461 2.00732 2.13448C3.01871 1.10436 4.39046 0.525635 5.82078 0.525635C7.2511 0.525635 8.62285 1.10436 9.63424 2.13448C10.6456 3.16461 11.2138 4.56177 11.2138 6.01859C11.2138 8.16191 9.87405 10.081 8.63916 11.4087C8.01069 12.0844 7.38405 12.6338 6.91512 13.0141C6.68024 13.2046 6.48383 13.3536 6.3451 13.4556C6.2757 13.5067 6.22066 13.546 6.18235 13.5731C6.1632 13.5866 6.14822 13.597 6.13772 13.6043L6.12536 13.6128L6.12177 13.6152L6.12063 13.616C6.12047 13.6161 6.11993 13.6165 5.82078 13.1594ZM5.82078 13.1594L6.11993 13.6165C5.93878 13.7395 5.70249 13.7393 5.52134 13.6163L5.82078 13.1594Z" fill="white"/>
<path fill-rule="evenodd" clip-rule="evenodd" d="M5.82074 4.72018C5.15885 4.72018 4.62228 5.25675 4.62228 5.91864C4.62228 6.58053 5.15885 7.11709 5.82074 7.11709C6.48263 7.11709 7.01919 6.58053 7.01919 5.91864C7.01919 5.25675 6.48263 4.72018 5.82074 4.72018ZM3.42383 5.91864C3.42383 4.59486 4.49696 3.52173 5.82074 3.52173C7.14451 3.52173 8.21765 4.59486 8.21765 5.91864C8.21765 7.24241 7.14451 8.31555 5.82074 8.31555C4.49696 8.31555 3.42383 7.24241 3.42383 5.91864Z" fill="white"/>
</svg>
