<svg width="47" height="60" viewBox="0 0 47 60" fill="none" xmlns="http://www.w3.org/2000/svg">
<path d="M35.7383 1.03607V11.3673H45.9641L35.7383 1.03607Z" fill="url(#paint0_linear_780_587)"/>
<path d="M33.9805 14.8828C33.0102 14.8828 32.2227 14.0953 32.2227 13.125V0H5.62109C2.71367 0 0.347656 2.36602 0.347656 5.27344V54.7266C0.347656 57.634 2.71367 60 5.62109 60H41.7148C44.6223 60 46.9883 57.634 46.9883 54.7266V14.8828H33.9805ZM31.7996 23.7434C31.1141 23.0566 31.1141 21.9434 31.7996 21.2566C32.4863 20.5711 33.5996 20.5711 34.2863 21.2566L38.9738 25.9441C39.6594 26.6309 39.6594 27.7441 38.9738 28.4309L34.2863 33.1184C33.943 33.4617 33.493 33.6328 33.043 33.6328C32.593 33.6328 32.143 33.4617 31.7996 33.1184C31.1141 32.4316 31.1141 31.3184 31.7996 30.6316L35.2449 27.1875L31.7996 23.7434ZM13.3555 51.4453H9.60547C8.63516 51.4453 7.84766 50.6578 7.84766 49.6875C7.84766 48.7172 8.63516 47.9297 9.60547 47.9297H13.3555C14.3258 47.9297 15.1133 48.7172 15.1133 49.6875C15.1133 50.6578 14.3258 51.4453 13.3555 51.4453ZM13.3555 43.9453H9.60547C8.63516 43.9453 7.84766 43.1578 7.84766 42.1875C7.84766 41.2172 8.63516 40.4297 9.60547 40.4297H13.3555C14.3258 40.4297 15.1133 41.2172 15.1133 42.1875C15.1133 43.1578 14.3258 43.9453 13.3555 43.9453ZM15.5363 30.6316C16.2219 31.3184 16.2219 32.4316 15.5363 33.1184C15.193 33.4617 14.743 33.6328 14.293 33.6328C13.843 33.6328 13.393 33.4617 13.0496 33.1184L8.36211 28.4309C7.67656 27.7441 7.67656 26.6309 8.36211 25.9441L13.0496 21.2566C13.7363 20.5711 14.8496 20.5711 15.5363 21.2566C16.2219 21.9434 16.2219 23.0566 15.5363 23.7434L12.091 27.1875L15.5363 30.6316ZM20.2379 36.3328C19.3297 35.993 18.8691 34.9793 19.2102 34.0699L24.8352 19.0699C25.175 18.1617 26.1887 17.7012 27.098 18.0422C28.0062 18.382 28.4668 19.3957 28.1258 20.3051L22.5008 35.3051C22.2371 36.0105 21.5668 36.4453 20.8555 36.4453C20.6504 36.4453 20.4418 36.4102 20.2379 36.3328ZM37.7305 51.4453H22.7305C21.7602 51.4453 20.9727 50.6578 20.9727 49.6875C20.9727 48.7172 21.7602 47.9297 22.7305 47.9297H37.7305C38.7008 47.9297 39.4883 48.7172 39.4883 49.6875C39.4883 50.6578 38.7008 51.4453 37.7305 51.4453ZM37.7305 43.9453H22.7305C21.7602 43.9453 20.9727 43.1578 20.9727 42.1875C20.9727 41.2172 21.7602 40.4297 22.7305 40.4297H37.7305C38.7008 40.4297 39.4883 41.2172 39.4883 42.1875C39.4883 43.1578 38.7008 43.9453 37.7305 43.9453Z" fill="url(#paint1_linear_780_587)"/>
<defs>
<linearGradient id="paint0_linear_780_587" x1="40.8512" y1="11.3673" x2="40.8512" y2="1.03607" gradientUnits="userSpaceOnUse">
<stop stop-color="#ADDCFF"/>
<stop offset="0.5028" stop-color="#EAF6FF"/>
<stop offset="1" stop-color="#EAF6FF"/>
</linearGradient>
<linearGradient id="paint1_linear_780_587" x1="23.668" y1="60" x2="23.668" y2="0" gradientUnits="userSpaceOnUse">
<stop stop-color="#5558FF"/>
<stop offset="1" stop-color="#00C0FF"/>
</linearGradient>
</defs>
</svg>
