<svg width="60" height="60" viewBox="0 0 60 60" fill="none" xmlns="http://www.w3.org/2000/svg">
<path fill-rule="evenodd" clip-rule="evenodd" d="M5.27344 0H54.7266C57.6343 0 60 2.36572 60 5.27344V36.3281H0V5.27344C0 2.36572 2.36572 0 5.27344 0ZM11.41 26.9536C12.1628 26.9536 13.2556 26.95 14.8546 26.9412C15.8253 26.9355 16.6079 26.1443 16.6025 25.1736C16.5972 24.2061 15.8112 23.4255 14.845 23.4255H14.8348C14.1877 23.4292 13.5131 23.4321 12.8804 23.4341C12.4535 23.4355 12.0457 23.4365 11.6782 23.437V11.1326C11.6782 10.1619 10.8911 9.37476 9.92041 9.37476C8.94958 9.37476 8.1626 10.1619 8.1626 11.1326V25.1833C8.1626 26.0398 8.78003 26.7717 9.62439 26.916C9.74927 26.9373 9.84521 26.9536 11.41 26.9536ZM21.3824 26.9529C22.3533 26.9529 23.1403 26.1658 23.1403 25.1951V11.1326C23.1403 10.1619 22.3533 9.37476 21.3824 9.37476C20.4117 9.37476 19.6246 10.1619 19.6246 11.1326V25.1951C19.6246 26.1658 20.4117 26.9529 21.3824 26.9529ZM34.7087 25.5339L39.3003 11.7126C39.6063 10.7913 39.1075 9.79639 38.1864 9.49023C37.2643 9.18408 36.27 9.68311 35.9639 10.6042L32.7101 20.3987L29.2937 10.5562C28.9753 9.63892 27.9734 9.15381 27.0566 9.47192C26.1395 9.79028 25.6541 10.792 25.9724 11.709L30.7803 25.5605L30.7845 25.5728C31.0787 26.3999 31.8633 26.9529 32.74 26.9529H32.7546C33.6372 26.9465 34.4209 26.3811 34.7048 25.5452L34.7087 25.5339ZM51.4004 18.1638C51.4004 17.1931 50.6134 16.406 49.6426 16.406H45.912V12.8904H50.0795C51.0503 12.8904 51.8373 12.1033 51.8373 11.1326C51.8373 10.1619 51.0503 9.37476 50.0795 9.37476H44.1542C43.1833 9.37476 42.3964 10.1619 42.3964 11.1326V25.1951C42.3964 26.1658 43.1833 26.9529 44.1542 26.9529H50.0795C51.0503 26.9529 51.8373 26.1658 51.8373 25.1951C51.8373 24.2244 51.0503 23.4373 50.0795 23.4373H45.912V19.9216H49.6426C50.6134 19.9216 51.4004 19.1345 51.4004 18.1638ZM0 43.9453C0 46.853 2.36572 49.2188 5.27344 49.2188H54.7266C57.6343 49.2188 60 46.853 60 43.9453V39.8438H0V43.9453ZM46.4062 56.4844H42.9945L41.7716 52.7344H18.2284L17.0055 56.4844H13.5938C12.6229 56.4844 11.8359 57.2715 11.8359 58.2422C11.8359 59.2129 12.6229 60 13.5938 60H46.4062C47.3771 60 48.1641 59.2129 48.1641 58.2422C48.1641 57.2715 47.3771 56.4844 46.4062 56.4844Z" fill="url(#paint0_linear_780_647)"/>
<defs>
<linearGradient id="paint0_linear_780_647" x1="30" y1="36.3281" x2="30" y2="0" gradientUnits="userSpaceOnUse">
<stop stop-color="#5558FF"/>
<stop offset="1" stop-color="#00C0FF"/>
</linearGradient>
</defs>
</svg>
