<svg id="Capa_1" enable-background="new 0 0 512.003 512.003" height="512" viewBox="0 0 512.003 512.003" width="512" xmlns="http://www.w3.org/2000/svg" xmlns:xlink="http://www.w3.org/1999/xlink"><linearGradient id="SVGID_1_" gradientUnits="userSpaceOnUse" x1="256.002" x2="256.002" y1="512.002" y2=".002"><stop offset="0" stop-color="#5558ff"/><stop offset="1" stop-color="#00c0ff"/></linearGradient><linearGradient id="SVGID_2_" gradientUnits="userSpaceOnUse" x1="233.5" x2="233.5" y1="512.002" y2="272.002"><stop offset="0" stop-color="#addcff"/><stop offset=".5028" stop-color="#eaf6ff"/><stop offset="1" stop-color="#eaf6ff"/></linearGradient><g><g><g><path d="m428.211 105.002 79.395-79.395c4.292-4.292 5.581-10.737 3.252-16.348-2.314-5.61-7.793-9.258-13.857-9.258h-240.001c-8.284 0-15 6.714-15 15v195 62l-30 45 45 15c8.291 0 15-6.709 15-15v-107h225c6.064 0 11.543-3.647 13.857-9.258 2.329-5.61 1.04-12.056-3.252-16.348zm-413.211 227c-8.401 0-15 6.599-15 15v150c0 8.401 6.599 15 15 15h90l32-84.457-32-95.543z" fill="url(#SVGID_1_)"/></g></g><g><g><path d="m317 302.002h-75v-30h-44.7c-24.902 0-44.399 19.501-45 44.7 0 8.401-6.599 15.3-15 15.3h-32.3v180h212c24.902 0 45-20.099 45-45v-120c0-24.901-20.098-45-45-45z" fill="url(#SVGID_2_)"/></g></g></g></svg>