<svg width="52" height="60" viewBox="0 0 52 60" fill="none" xmlns="http://www.w3.org/2000/svg">
<path fill-rule="evenodd" clip-rule="evenodd" d="M23.1437 19.8526C22.8141 19.5229 22.3671 19.3377 21.9008 19.3377H5.27344V19.3359C4.30266 19.3359 3.51562 18.5489 3.51562 17.5781V1.75781C3.51562 0.787031 4.30266 0 5.27344 0H34.5724C35.5432 0 36.3302 0.787031 36.3302 1.75781V19.3377H29.811C29.3449 19.3377 28.8979 19.5229 28.5682 19.8525L25.8558 22.5645L23.1437 19.8526ZM29.5913 10.5479C29.5913 9.57715 28.8042 8.79012 27.8334 8.79012C26.8627 8.79012 26.0756 9.57715 26.0756 10.5479C26.0756 11.5187 26.8627 12.3057 27.8334 12.3057C28.8042 12.3057 29.5913 11.5187 29.5913 10.5479ZM21.6807 10.5479C21.6807 9.57715 20.8937 8.79012 19.9229 8.79012C18.9521 8.79012 18.1651 9.57715 18.1651 10.5479C18.1651 11.5187 18.9521 12.3057 19.9229 12.3057C20.8937 12.3057 21.6807 11.5187 21.6807 10.5479ZM13.7702 10.5479C13.7702 9.57715 12.9832 8.79012 12.0124 8.79012C11.0416 8.79012 10.2546 9.57715 10.2546 10.5479C10.2546 11.5187 11.0416 12.3057 12.0124 12.3057C12.9832 12.3057 13.7702 11.5187 13.7702 10.5479ZM39.8458 11.4115V21.0955C39.8458 22.0663 39.0588 22.8533 38.088 22.8533H30.539L27.0985 26.2933C26.7552 26.6364 26.3055 26.8081 25.8557 26.8081C25.4058 26.8081 24.9561 26.6365 24.6127 26.2933L21.1728 22.8535H16.7309C16.1752 24.5829 15.8738 26.4253 15.8738 28.3371V32.5655L11.6996 40.9596C11.4285 41.5044 11.4586 42.1507 11.7793 42.668C12.0996 43.1854 12.6651 43.5001 13.2735 43.5001H15.8738V52.6772C15.8738 53.648 16.6608 54.435 17.6316 54.435H25.7104V58.2423C25.7104 59.2131 26.4974 60.0001 27.4682 60.0001H44.0061C44.9768 60.0001 45.7639 59.2131 45.7639 58.2423V49.8107C45.7639 46.6292 46.803 44.6959 48.1185 42.2483C49.8423 39.0413 51.7961 35.4061 51.7961 28.3372C51.796 20.5405 46.8022 13.8895 39.8458 11.4115ZM0 44.0626C0 43.0918 0.787031 42.3048 1.75781 42.3048C2.72871 42.3048 3.51562 43.0918 3.51562 44.0626V51.3282C3.51562 52.299 2.72859 53.0861 1.75781 53.0861C0.787031 53.0861 0 52.299 0 51.3282V44.0626ZM7.03174 46.4066C7.03174 45.4358 7.81877 44.6488 8.78955 44.6488C9.76033 44.6488 10.5474 45.4358 10.5474 46.4066V48.9843C10.5474 49.9551 9.76033 50.7421 8.78955 50.7421C7.81877 50.7421 7.03174 49.9551 7.03174 48.9843V46.4066Z" fill="url(#paint0_linear_780_648)"/>
<defs>
<linearGradient id="paint0_linear_780_648" x1="41.8979" y1="68.5" x2="25.898" y2="-1.04841e-06" gradientUnits="userSpaceOnUse">
<stop stop-color="#5558FF"/>
<stop offset="1" stop-color="#00C0FF"/>
</linearGradient>
</defs>
</svg>
