<svg id="Capa_1" enable-background="new 0 0 512.002 512.002" height="512" viewBox="0 0 512.002 512.002" width="512" xmlns="http://www.w3.org/2000/svg" xmlns:xlink="http://www.w3.org/1999/xlink"><linearGradient id="SVGID_1_" gradientUnits="userSpaceOnUse" x1="224.932" x2="224.932" y1="512.002" y2="16.47"><stop offset="0" stop-color="#5558ff"/><stop offset="1" stop-color="#00c0ff"/></linearGradient><linearGradient id="SVGID_2_" gradientUnits="userSpaceOnUse" x1="272.608" x2="272.608" y1="261.271" y2="0"><stop offset="0" stop-color="#addcff"/><stop offset=".5028" stop-color="#eaf6ff"/><stop offset="1" stop-color="#eaf6ff"/></linearGradient><g><g><g><path d="m37.6 142.17-3.9-14.7c-2.1-8.101-10.199-12.599-18.3-10.499s-12.599 10.199-10.499 18.299c2.256 8.447 37.934 142.037 38.699 144.901 1.987 7.287 9.37 12.735 18.3 10.499 8.101-2.1 12.9-10.199 10.801-18.3l-3.9-14.7 13.779-75.049zm-32.699-6.899c-.004-.015-.01-.039-.014-.053.005.019.009.032.014.053zm-.014-.053c-.136-.51-.131-.49 0 0zm282.013 79.553c-.003.001-.005.001-.008.001-.085.014-.181.03-.241.039.068-.01.147-.023.249-.04zm103.801-198.301c-16.083 6.128 20.081-7.564-280.499 106.201l-3.301.899-15.714 73.968 43.913 42.432 4.501-1.199c-5.879.967 89.96-14.8 92.999-15.3 6-.901 10.8-5.099 12.001-11.1 2.999-11.4 20.7-14.399 27.299-4.2 3.3 5.097 8.995 7.798 14.992 6.602 8.674-1.423 148.952-24.433 151.808-24.902l6.778-98.893zm-109.545 222.345h-43.711l-111.767 251.872c-3.457 7.515-.205 16.436 7.324 19.922 7.245 3.413 16.334.397 19.922-7.295l37.688-81.314h53.688v75c0 8.291 6.709 15 15 15s15-6.709 15-15v-75h53.688l37.689 81.313c3.587 7.689 12.674 10.709 19.922 7.295 7.529-3.486 10.781-12.407 7.324-19.922zm-36.855 153.185h-39.783l39.783-96.565zm30 0v-96.565l39.783 96.565z" fill="url(#SVGID_1_)"/></g></g><g><g><path d="m450.122.565c.193-.051.185-.049 0 0zm-11.422 189.306c-.2.054-.212.057 0 0zm68.401-33.9-38.701-144.901c-1.983-8.602-11.294-12.657-18.3-10.499.01-.003.013-.003.022-.006-3.105.831-56.55 15.136-59.421 15.905l47.999 173.401c3.166-.853 55.032-14.828 57.9-15.601 8.1-2.1 12.601-10.199 10.501-18.299zm-247.8 15.3c-23.498 0-45 19.129-45 45 0 24.814 20.186 45 45 45s45-20.186 45-45c0-24.081-19.508-45-45-45zm-221.701-29.101 31.201 115.501c-.03.008-.044.012-.067.018 3.038-.811 63.436-16.936 66.366-17.719l-28.2-116.4c-3.851 1.034-66.387 17.818-69.3 18.6zm69.3-18.6c.043-.012.088-.024.116-.031-.032.009-.064.017-.116.031zm-38.166 134.119c-.159.043-.155.042 0 0z" fill="url(#SVGID_2_)"/></g></g></g></svg>