<svg width="60" height="60" viewBox="0 0 60 60" fill="none" xmlns="http://www.w3.org/2000/svg">
<path fill-rule="evenodd" clip-rule="evenodd" d="M35.625 0H54.375C57.4768 0 60 2.52319 60 5.625V24.375C60 25.4114 59.1614 26.25 58.125 26.25H52.5C52.5 29.3518 49.9768 31.875 46.875 31.875C43.7732 31.875 41.25 29.3518 41.25 26.25H35.625C34.5886 26.25 33.75 25.4114 33.75 24.375V16.3696C33.75 14.9718 35.3559 14.032 36.5736 14.7511C37.7744 15.4601 39.3751 14.4937 39.375 13.1249C39.3749 11.7285 37.8003 10.7831 36.5734 11.4991C35.3481 12.2141 33.75 11.3018 33.75 9.88033V1.875C33.75 0.838631 34.5886 0 35.625 0ZM13.125 28.125C10.0232 28.125 7.5 30.6482 7.5 33.75H0V16.875C0 13.7732 2.52319 11.25 5.625 11.25H22.5V21.1304C22.5 22.542 24.1005 23.4682 25.3228 22.7489C26.5194 22.0447 28.125 23.0132 28.125 24.375C28.125 25.7862 26.5408 26.7103 25.3226 26.001C24.1142 25.2974 22.5 26.2187 22.5 27.6197V33.75H18.75C18.75 30.6482 16.2268 28.125 13.125 28.125ZM16.875 46.875C16.875 49.9768 19.3982 52.5 22.5 52.5V60H5.625C2.52319 60 0 57.4768 0 54.375V37.5H9.88129C11.3 37.5 12.219 35.9028 11.4989 34.6764C10.7984 33.4833 11.7672 31.8749 13.1251 31.875C14.5444 31.8751 15.4541 33.4747 14.7509 34.6766C14.0227 35.9212 14.97 37.5 16.3687 37.5H22.5V41.25C19.3982 41.25 16.875 43.7732 16.875 46.875ZM41.25 37.5C41.25 40.6018 38.7268 43.125 35.625 43.125C32.5232 43.125 30 40.6018 30 37.5H26.25V43.6304C26.25 45.0352 24.6393 45.9562 23.4275 45.2491C22.2164 44.5423 20.625 45.462 20.625 46.8749C20.625 48.2418 22.2284 49.2067 23.4274 48.501C24.6433 47.7853 26.25 48.7217 26.25 50.1196V60H43.125C46.2268 60 48.75 57.4768 48.75 54.375V37.5H41.25Z" fill="url(#paint0_linear_780_649)"/>
<defs>
<linearGradient id="paint0_linear_780_649" x1="48.5341" y1="68.4999" x2="34.5375" y2="-0.914928" gradientUnits="userSpaceOnUse">
<stop stop-color="#5558FF"/>
<stop offset="1" stop-color="#00C0FF"/>
</linearGradient>
</defs>
</svg>
