<svg width="65" height="65" viewBox="0 0 65 65" fill="none" xmlns="http://www.w3.org/2000/svg">
<path d="M65.0001 54.1669V48.7499H60.4988C60.3111 48.1308 60.0674 47.5417 59.7659 46.9827L62.9509 43.7986L59.1184 39.9684L55.9334 43.1502C55.3752 42.8487 54.7861 42.6058 54.167 42.4181V37.9169H48.7501V42.4181C48.1309 42.6058 47.5419 42.8487 46.9829 43.1502L43.7987 39.966L39.9686 43.7986L43.1503 46.9827C42.8489 47.5417 42.6059 48.1308 42.4182 48.7499H37.917V54.1669H42.4182C42.6059 54.786 42.8489 55.3751 43.1503 55.9332L39.9686 59.1182L43.7987 62.9476L46.9804 59.7658C47.5411 60.0672 48.1309 60.311 48.7501 60.4987V64.9999H54.167V60.4987C54.7861 60.311 55.3752 60.0672 55.9366 59.7658L59.1184 62.9476L62.9509 59.1182L59.7659 55.9332C60.0674 55.3734 60.3111 54.786 60.4988 54.1669H65.0001ZM51.4581 55.5205C49.2156 55.5205 47.3956 53.7013 47.3956 51.458C47.3956 49.2155 49.2156 47.3955 51.4581 47.3955C53.7014 47.3955 55.5206 49.2155 55.5206 51.458C55.5206 53.7013 53.7014 55.5205 51.4581 55.5205Z" fill="url(#paint0_linear_780_577)"/>
<path d="M65 10.8331V5.41694C65 2.43831 62.5617 0 59.583 0H5.41694C2.43831 0 0 2.43831 0 5.41694V10.8331H65Z" fill="url(#paint1_linear_780_577)"/>
<path d="M0 16.25V54.1669C0 57.1447 2.43831 59.5831 5.41694 59.5831H33.8544V51.4613C33.8544 41.7414 41.7332 33.8544 51.458 33.8544H65V16.25H0ZM5.41694 27.0835C5.41694 25.5876 6.62956 24.375 8.1254 24.375H21.6665C23.1624 24.375 24.375 25.5876 24.375 27.0835V27.0835C24.375 28.5793 23.1624 29.7919 21.6665 29.7919H8.1254C6.62956 29.7919 5.41694 28.5793 5.41694 27.0835V27.0835ZM10.8331 48.75C10.8331 50.2456 9.62062 51.4581 8.125 51.4581V51.4581C6.62938 51.4581 5.41694 50.2456 5.41694 48.75V48.75C5.41694 47.2544 6.62938 46.0419 8.125 46.0419V46.0419C9.62062 46.0419 10.8331 47.2544 10.8331 48.75V48.75ZM27.0831 48.75C27.0831 50.2456 25.8706 51.4581 24.375 51.4581H18.9581C17.4624 51.4581 16.25 50.2456 16.25 48.75V48.75C16.25 47.2544 17.4624 46.0419 18.9581 46.0419H24.375C25.8706 46.0419 27.0831 47.2544 27.0831 48.75V48.75ZM32.5 37.9165C32.5 39.4124 31.2874 40.625 29.7915 40.625H13.5415C12.0457 40.625 10.8331 39.4124 10.8331 37.9165V37.9165C10.8331 36.4207 12.0457 35.2081 13.5415 35.2081H29.7915C31.2874 35.2081 32.5 36.4207 32.5 37.9165V37.9165ZM43.3331 27.0835C43.3331 28.5793 42.1204 29.7919 40.6246 29.7919H32.5004C31.0045 29.7919 29.7919 28.5793 29.7919 27.0835V27.0835C29.7919 25.5876 31.0046 24.375 32.5004 24.375H40.6246C42.1204 24.375 43.3331 25.5876 43.3331 27.0835V27.0835Z" fill="url(#paint2_linear_780_577)"/>
<defs>
<linearGradient id="paint0_linear_780_577" x1="51.4585" y1="64.9999" x2="51.4585" y2="37.9169" gradientUnits="userSpaceOnUse">
<stop stop-color="#5558FF"/>
<stop offset="1" stop-color="#00C0FF"/>
</linearGradient>
<linearGradient id="paint1_linear_780_577" x1="32.5" y1="10.8331" x2="32.5" y2="0" gradientUnits="userSpaceOnUse">
<stop stop-color="#ADDCFF"/>
<stop offset="0.5028" stop-color="#EAF6FF"/>
<stop offset="1" stop-color="#EAF6FF"/>
</linearGradient>
<linearGradient id="paint2_linear_780_577" x1="32.5" y1="59.5831" x2="32.5" y2="16.25" gradientUnits="userSpaceOnUse">
<stop stop-color="#5558FF"/>
<stop offset="1" stop-color="#00C0FF"/>
</linearGradient>
</defs>
</svg>
