<svg width="60" height="60" viewBox="0 0 60 60" fill="none" xmlns="http://www.w3.org/2000/svg">
<path fill-rule="evenodd" clip-rule="evenodd" d="M0 14.2383C0 6.38733 6.38733 0 14.2383 0C22.0892 0 28.4766 6.38733 28.4766 14.2383C28.4766 22.0892 22.0892 28.4766 14.2383 28.4766C6.38733 28.4766 0 22.0892 0 14.2383ZM19.6289 10.7812C19.6289 9.81299 18.8394 9.02344 17.8711 9.02344C16.9028 9.02344 16.1133 9.81299 16.1133 10.7812C16.1133 11.7495 16.9028 12.5391 17.8711 12.5391C18.8394 12.5391 19.6289 11.7495 19.6289 10.7812ZM12.3633 10.7812C12.3633 9.81299 11.5737 9.02344 10.6055 9.02344C9.63721 9.02344 8.84766 9.81299 8.84766 10.7812C8.84766 11.7495 9.63721 12.5391 10.6055 12.5391C11.5737 12.5391 12.3633 11.7495 12.3633 10.7812ZM14.2357 21.2697C16.3655 21.2697 18.3546 20.22 19.5566 18.4618C20.1045 17.6604 19.899 16.5665 19.0978 16.0186C18.2961 15.4705 17.2024 15.6763 16.6545 16.4777C16.1082 17.2769 15.2039 17.754 14.2358 17.754C13.2573 17.754 12.3477 17.2689 11.8025 16.4562C11.2618 15.6499 10.1699 15.4347 9.36353 15.9755C8.55725 16.5162 8.34204 17.6083 8.88281 18.4146C10.0819 20.2023 12.083 21.2697 14.2357 21.2697ZM0 45.7617C0 37.9108 6.38733 31.5234 14.2383 31.5234C22.0892 31.5234 28.4766 37.9108 28.4766 45.7617C28.4766 53.6127 22.0892 60 14.2383 60C6.38733 60 0 53.6127 0 45.7617ZM19.6289 42.3047C19.6289 41.3364 18.8394 40.5469 17.8711 40.5469C16.9028 40.5469 16.1133 41.3364 16.1133 42.3047C16.1133 43.2729 16.9028 44.0625 17.8711 44.0625C18.8394 44.0625 19.6289 43.2729 19.6289 42.3047ZM12.3633 42.3047C12.3633 41.3364 11.5737 40.5469 10.6055 40.5469C9.63721 40.5469 8.84766 41.3364 8.84766 42.3047C8.84766 43.2729 9.63721 44.0625 10.6055 44.0625C11.5737 44.0625 12.3633 43.2729 12.3633 42.3047ZM16.6543 51.9928C17.2023 52.7942 18.2959 52.9999 19.0974 52.4518C19.8989 51.9039 20.1045 50.8101 19.5564 50.0087C18.3544 48.2505 16.3652 47.2009 14.2355 47.2009C12.0829 47.2009 10.0817 48.2682 8.88257 50.056C8.34192 50.8623 8.55701 51.9543 9.36328 52.4951C9.66394 52.6967 10.0042 52.7932 10.3408 52.7932C10.9071 52.7932 11.4631 52.52 11.8022 52.0144C12.3474 51.2017 13.2571 50.7166 14.2356 50.7166C15.2037 50.7166 16.108 51.1936 16.6543 51.9928ZM45.7617 28.4766C53.6127 28.4766 60 22.0892 60 14.2383C60 6.38733 53.6127 0 45.7617 0C37.9108 0 31.5234 6.38733 31.5234 14.2383C31.5234 22.0892 37.9108 28.4766 45.7617 28.4766ZM49.3945 9.02344C50.3628 9.02344 51.1523 9.81299 51.1523 10.7812C51.1523 11.7495 50.3628 12.5391 49.3945 12.5391C48.4263 12.5391 47.6367 11.7495 47.6367 10.7812C47.6367 9.81299 48.4263 9.02344 49.3945 9.02344ZM42.1289 9.02344C43.0972 9.02344 43.8867 9.81299 43.8867 10.7812C43.8867 11.7495 43.0972 12.5391 42.1289 12.5391C41.1606 12.5391 40.3711 11.7495 40.3711 10.7812C40.3711 9.81299 41.1606 9.02344 42.1289 9.02344ZM49.4534 16.5236C50.4242 16.5236 51.2112 17.3105 51.2112 18.2814C51.2112 19.2522 50.4242 20.0392 49.4534 20.0392H42.0701C41.0992 20.0392 40.3123 19.2522 40.3123 18.2814C40.3123 17.3105 41.0992 16.5236 42.0701 16.5236H49.4534ZM31.5234 45.7617C31.5234 37.9108 37.9108 31.5234 45.7617 31.5234C53.6127 31.5234 60 37.9108 60 45.7617C60 53.6127 53.6127 60 45.7617 60C37.9108 60 31.5234 53.6127 31.5234 45.7617ZM41.7762 40.0228C40.9731 39.4773 39.88 39.6863 39.3346 40.4895C38.7892 41.2925 38.9982 42.3857 39.8013 42.9313L41.549 44.118C41.8514 44.3235 42.1948 44.4218 42.5348 44.4218C43.0977 44.4218 43.6508 44.1519 43.9907 43.6512C44.5361 42.8481 44.3273 41.755 43.524 41.2096L41.7762 40.0228ZM45.7592 52.7931C47.8889 52.7931 49.8779 51.7434 51.0801 49.9852C51.6279 49.1838 51.4225 48.09 50.6211 47.542C49.8196 46.994 48.7258 47.1997 48.1779 48.0011C47.6316 48.8003 46.7273 49.2775 45.7592 49.2775C44.7805 49.2775 43.8708 48.7924 43.3259 47.9796C42.7852 47.1731 41.6934 46.9581 40.887 47.4988C40.0807 48.0396 39.8655 49.1316 40.4062 49.9379C41.6053 51.7257 43.6064 52.7931 45.7592 52.7931ZM49.9744 44.1179L51.7222 42.9312C52.5253 42.3857 52.7343 41.2925 52.1887 40.4894C51.6434 39.6863 50.5503 39.4773 49.7471 40.0227L47.9993 41.2095C47.1962 41.7549 46.9873 42.848 47.5327 43.6511C47.8727 44.1519 48.4257 44.4216 48.9885 44.4216C49.3284 44.4216 49.6719 44.3232 49.9744 44.1179Z" fill="url(#paint0_linear_780_646)"/>
<defs>
<linearGradient id="paint0_linear_780_646" x1="30" y1="36.3281" x2="30" y2="0" gradientUnits="userSpaceOnUse">
<stop stop-color="#5558FF"/>
<stop offset="1" stop-color="#00C0FF"/>
</linearGradient>
</defs>
</svg>
