<svg id="Capa_1" enable-background="new 0 0 512 512" height="512" viewBox="0 0 512 512" width="512" xmlns="http://www.w3.org/2000/svg" xmlns:xlink="http://www.w3.org/1999/xlink"><linearGradient id="SVGID_1_" gradientUnits="userSpaceOnUse" x1="256" x2="256" y1="512" y2="0"><stop offset="0" stop-color="#addcff"/><stop offset=".5028" stop-color="#eaf6ff"/><stop offset="1" stop-color="#eaf6ff"/></linearGradient><linearGradient id="SVGID_00000005982808803710396030000001336087232858916229_" gradientUnits="userSpaceOnUse" x1="256" x2="256" y1="512" y2="0"><stop offset="0" stop-color="#5558ff"/><stop offset="1" stop-color="#00c0ff"/></linearGradient><g><g><g><path d="m451 391c-6.138 0-11.946 1.196-17.527 2.917 29.678-38.123 47.527-85.898 47.527-137.917l-120-90-105 90-60 105 60 120c52.017 0 99.794-17.851 137.917-47.527-1.719 5.581-2.917 11.389-2.917 17.527 0 33.091 26.924 61 60 61s61-27.909 61-61-27.924-60-61-60zm-195-360c-52.017 0-99.794 17.851-137.917 47.527 1.719-5.581 2.917-11.389 2.917-17.527 0-33.091-26.924-61-60-61s-61 27.909-61 61 27.924 60 61 60c6.138 0 11.946-1.196 17.527-2.917-29.678 38.123-47.527 85.898-47.527 137.917l120 90 105-90 60-105z" fill="url(#SVGID_1_)"/></g></g><g><g><path d="m512 61c0-33.091-27.924-61-61-61s-60 27.909-60 61c0 6.138 1.198 11.946 2.917 17.527-38.123-29.676-85.9-47.527-137.917-47.527v77.699c-4.799-1.8-9.6-2.699-15-2.699-24.9 0-45 20.1-45 45 0 24.898 20.1 45 45 45 5.4 0 10.201-.901 15-2.701v62.701h62.701c-1.8-4.801-2.701-9.6-2.701-15 0-24.9 20.1-45 45-45s45 20.1 45 45c0 5.4-.901 10.199-2.701 15h77.701c0-52.019-17.849-99.794-47.527-137.917 5.581 1.721 11.389 2.917 17.527 2.917 33.076 0 61-26.909 61-60zm-316 210c0 24.898-20.1 45-45 45s-45-20.102-45-45c0-5.4.901-10.201 2.701-15h-77.701c0 52.019 17.849 99.794 47.527 137.917-5.581-1.721-11.389-2.917-17.527-2.917-33.076 0-61 26.909-61 60s27.924 61 61 61 60-27.909 60-61c0-6.138-1.198-11.946-2.917-17.527 38.123 29.676 85.9 47.527 137.917 47.527v-77.701c4.799 1.8 9.6 2.701 15 2.701 24.9 0 45-20.102 45-45 0-24.9-20.1-45-45-45-5.4 0-10.201.899-15 2.699v-62.699h-62.701c1.8 4.799 2.701 9.6 2.701 15z" fill="url(#SVGID_00000005982808803710396030000001336087232858916229_)"/></g></g></g></svg>